<svg width="584" height="584" viewBox="0 0 584 584" fill="none" xmlns="http://www.w3.org/2000/svg">
<rect width="584" height="584" rx="4" fill="white"/>
<path fill-rule="evenodd" clip-rule="evenodd" d="M36.5 173.375C36.5 148.177 56.927 127.75 82.125 127.75H228.125C253.323 127.75 273.75 148.177 273.75 173.375V264.625C273.75 289.823 253.323 310.25 228.125 310.25H82.125C56.927 310.25 36.5 289.823 36.5 264.625V173.375ZM328.5 209.875C328.5 184.677 348.927 164.25 374.125 164.25H501.875C527.073 164.25 547.5 184.677 547.5 209.875V410.625C547.5 435.823 527.073 456.25 501.875 456.25H374.125C348.927 456.25 328.5 435.823 328.5 410.625V209.875ZM73 392.375C73 367.177 93.427 346.75 118.625 346.75H246.375C271.573 346.75 292 367.177 292 392.375V447.125C292 472.323 271.573 492.75 246.375 492.75H118.625C93.427 492.75 73 472.323 73 447.125V392.375Z" fill="#01394D"/>
<path fill-rule="evenodd" clip-rule="evenodd" d="M36.5 173.375C36.5 148.177 56.927 127.75 82.125 127.75H228.125C253.323 127.75 273.75 148.177 273.75 173.375V264.625C273.75 289.823 253.323 310.25 228.125 310.25H82.125C56.927 310.25 36.5 289.823 36.5 264.625V173.375ZM73 392.375C73 367.177 93.427 346.75 118.625 346.75H246.375C271.573 346.75 292 367.177 292 392.375V447.125C292 472.323 271.573 492.75 246.375 492.75H118.625C93.427 492.75 73 472.323 73 447.125V392.375Z" fill="#F59F1D"/>
<path fill-rule="evenodd" clip-rule="evenodd" d="M36.5 173.375C36.5 148.177 56.927 127.75 82.125 127.75H228.125C253.323 127.75 273.75 148.177 273.75 173.375V264.625C273.75 289.823 253.323 310.25 228.125 310.25H82.125C56.927 310.25 36.5 289.823 36.5 264.625V173.375Z" fill="#B5D8CA"/>
</svg>
