<svg width="27" height="25" viewBox="0 0 27 25" fill="none" xmlns="http://www.w3.org/2000/svg">
<path d="M4.00824 9.9164L3.42051 10.9329C2.85983 11.9026 2.85983 13.0974 3.42051 14.0671L7.10114 20.4329C7.5 21 8.34451 22 9 22M6.18099 6.15855L7.10114 4.56709C7.66182 3.59737 8.69801 3 9.81937 3H13.0058M14.0672 22H17.1806C18.302 22 19.3382 21.4026 19.8989 20.4329L23.5795 14.0671C24.1402 13.0974 24.1402 11.9026 23.5795 10.9329L19.8989 4.56709C19.539 4.04473 18.6555 3 18 3" stroke="#05A9DB" stroke-width="0.9" stroke-linecap="round"/>
<path d="M21.1177 2.87015L20.6846 3.11997L20.6846 3.11997L21.1177 2.87015ZM25.4994 10.4671L25.9325 10.2172L25.9325 10.2172L25.4994 10.4671ZM5.88231 21.8043L5.44919 22.0541L5.44919 22.0541L5.88231 21.8043ZM1.50061 14.2074L1.06749 14.4572L1.06749 14.4572L1.50061 14.2074ZM1.50061 10.4671L1.93373 10.7169L1.93373 10.7169L1.50061 10.4671ZM5.88231 2.87015L6.31544 3.11997L6.31544 3.11997L5.88231 2.87015ZM21.1177 21.8043L20.6846 21.5545L20.6846 21.5545L21.1177 21.8043ZM25.4994 14.2074L25.9325 14.4572L25.9325 14.4572L25.4994 14.2074ZM11.5 23.6744V24.1744C11.6811 24.1744 11.8481 24.0764 11.9365 23.9183C12.0248 23.7602 12.0208 23.5666 11.9258 23.4124L11.5 23.6744ZM9.60025 19.6333C9.45552 19.3981 9.14755 19.3248 8.91237 19.4695C8.67719 19.6142 8.60386 19.9222 8.74859 20.1574L9.60025 19.6333ZM15.5 1V0.5C15.3189 0.5 15.1519 0.597971 15.0635 0.756099C14.9752 0.914227 14.9792 1.10778 15.0742 1.26205L15.5 1ZM22.8195 19.8545C22.9575 19.6153 22.8754 19.3095 22.6362 19.1715C22.397 19.0336 22.0912 19.1156 21.9532 19.3548L22.8195 19.8545ZM17.3998 5.04112C17.5445 5.2763 17.8525 5.34962 18.0876 5.2049C18.3228 5.06017 18.3961 4.7522 18.2514 4.51702L17.3998 5.04112ZM23.7306 16.2733C23.5926 16.5125 23.6747 16.8182 23.9139 16.9562C24.1531 17.0942 24.4589 17.0121 24.5969 16.7729L23.7306 16.2733ZM14.5281 23.1744C14.2519 23.1744 14.0281 23.3983 14.0281 23.6744C14.0281 23.9506 14.2519 24.1744 14.5281 24.1744V23.1744ZM12.3266 1.5C12.6027 1.5 12.8266 1.27614 12.8266 1C12.8266 0.723858 12.6027 0.5 12.3266 0.5V1.5ZM20.6846 3.11997L25.0663 10.7169L25.9325 10.2172L21.5508 2.62034L20.6846 3.11997ZM6.31543 21.5545L1.93373 13.9576L1.06749 14.4572L5.44919 22.0541L6.31543 21.5545ZM1.93373 10.7169L6.31544 3.11997L5.44919 2.62034L1.06749 10.2172L1.93373 10.7169ZM6.31544 3.11997C6.89371 2.11737 7.96222 1.5 9.11829 1.5V0.5C7.60446 0.5 6.20588 1.30842 5.44919 2.62034L6.31544 3.11997ZM1.93373 13.9576C1.35542 12.9549 1.35542 11.7195 1.93373 10.7169L1.06749 10.2172C0.310838 11.5291 0.310838 13.1453 1.06749 14.4572L1.93373 13.9576ZM9.13954 23.1744C7.9803 23.1744 6.89214 22.5543 6.31543 21.5545L5.44919 22.0541C6.20744 23.3687 7.62886 24.1744 9.13954 24.1744V23.1744ZM20.6846 21.5545C20.1063 22.557 19.0378 23.1744 17.8817 23.1744V24.1744C19.3955 24.1744 20.7941 23.366 21.5508 22.0541L20.6846 21.5545ZM25.0663 10.7169C25.6446 11.7195 25.6446 12.9549 25.0663 13.9575L25.9325 14.4572C26.6892 13.1453 26.6892 11.5291 25.9325 10.2172L25.0663 10.7169ZM21.5508 2.62034C20.7941 1.30842 19.3955 0.5 17.8817 0.5V1.5C19.0378 1.5 20.1063 2.11737 20.6846 3.11997L21.5508 2.62034ZM11.5 23.1744H9.13954V24.1744H11.5V23.1744ZM11.9258 23.4124L9.60025 19.6333L8.74859 20.1574L11.0742 23.9365L11.9258 23.4124ZM15.5 1.5H17.8817V0.5H15.5V1.5ZM21.9532 19.3548L20.6846 21.5545L21.5508 22.0541L22.8195 19.8545L21.9532 19.3548ZM15.0742 1.26205L17.3998 5.04112L18.2514 4.51702L15.9258 0.737951L15.0742 1.26205ZM25.0663 13.9575L23.7306 16.2733L24.5969 16.7729L25.9325 14.4572L25.0663 13.9575ZM17.8817 23.1744H14.5281V24.1744H17.8817V23.1744ZM9.11829 1.5H12.3266V0.5H9.11829V1.5Z" fill="#CF55E3"/>
<path d="M9.02641 11.1976L8.74972 11.6761C8.48577 12.1326 8.48577 12.6951 8.74972 13.1516L10.4825 16.1484C10.6702 16.4154 11.0678 16.8862 11.3764 16.8862M10.0493 9.42848L10.4825 8.67927C10.7464 8.22275 11.2342 7.94153 11.7621 7.94153H13.2622M13.7619 16.8862H15.2276C15.7555 16.8862 16.2433 16.6049 16.5072 16.1484L18.24 13.1516C18.5039 12.6951 18.5039 12.1326 18.24 11.6761L16.5072 8.67927C16.3378 8.43336 15.9219 7.94153 15.6133 7.94153" stroke="#05A9DB" stroke-width="0.4" stroke-linecap="round"/>
<path d="M17.0807 7.88041L16.8641 8.00532L16.8641 8.00532L17.0807 7.88041ZM19.1434 11.4568L18.9269 11.5817L18.9269 11.5817L19.1434 11.4568ZM9.90831 16.794L10.1249 16.6691L10.1249 16.6691L9.90831 16.794ZM7.84553 13.2176L7.62897 13.3425L7.62897 13.3425L7.84553 13.2176ZM7.84553 11.4568L8.06209 11.5817L8.06209 11.5817L7.84553 11.4568ZM9.90831 7.88041L10.1249 8.00532L10.1249 8.00532L9.90831 7.88041ZM17.0807 16.794L16.8641 16.6691L16.8641 16.6691L17.0807 16.794ZM19.1434 13.2176L19.36 13.3425L19.36 13.3425L19.1434 13.2176ZM12.5529 17.6744V17.9244C12.6435 17.9244 12.727 17.8754 12.7712 17.7964C12.8154 17.7173 12.8133 17.6205 12.7659 17.5434L12.5529 17.6744ZM11.671 15.7643C11.5987 15.6467 11.4447 15.6101 11.3271 15.6824C11.2095 15.7548 11.1729 15.9088 11.2452 16.0264L11.671 15.7643ZM14.436 7V6.75C14.3455 6.75 14.262 6.79899 14.2178 6.87805C14.1736 6.95711 14.1756 7.05389 14.2231 7.13102L14.436 7ZM17.8945 15.8834C17.9635 15.7638 17.9224 15.6109 17.8028 15.5419C17.6832 15.473 17.5303 15.514 17.4614 15.6336L17.8945 15.8834ZM15.3179 8.9101C15.3903 9.02769 15.5443 9.06435 15.6619 8.99199C15.7795 8.91962 15.8161 8.76564 15.7438 8.64805L15.3179 8.9101ZM18.2981 14.1829C18.2291 14.3025 18.2701 14.4554 18.3897 14.5244C18.5093 14.5933 18.6622 14.5523 18.7312 14.4327L18.2981 14.1829ZM13.9785 17.4244C13.8404 17.4244 13.7285 17.5364 13.7285 17.6744C13.7285 17.8125 13.8404 17.9244 13.9785 17.9244V17.4244ZM12.9421 7.25C13.0801 7.25 13.1921 7.13807 13.1921 7C13.1921 6.86193 13.0801 6.75 12.9421 6.75V7.25ZM16.8641 8.00532L18.9269 11.5817L19.36 11.3319L17.2972 7.75551L16.8641 8.00532ZM10.1249 16.6691L8.06209 13.0927L7.62897 13.3425L9.69175 16.9189L10.1249 16.6691ZM8.06209 11.5817L10.1249 8.00532L9.69175 7.75551L7.62897 11.3319L8.06209 11.5817ZM10.1249 8.00532C10.3945 7.53785 10.8927 7.25 11.4317 7.25V6.75C10.7138 6.75 10.0506 7.13337 9.69175 7.75551L10.1249 8.00532ZM8.06209 13.0927C7.79245 12.6252 7.79245 12.0492 8.06209 11.5817L7.62897 11.3319C7.27016 11.954 7.27016 12.7204 7.62897 13.3425L8.06209 13.0927ZM11.4417 17.4244C10.9011 17.4244 10.3937 17.1352 10.1249 16.6691L9.69175 16.9189C10.0514 17.5424 10.7254 17.9244 11.4417 17.9244V17.4244ZM16.8641 16.6691C16.5945 17.1366 16.0963 17.4244 15.5573 17.4244V17.9244C16.2752 17.9244 16.9384 17.5411 17.2972 16.9189L16.8641 16.6691ZM18.9269 11.5817C19.1965 12.0492 19.1965 12.6252 18.9269 13.0927L19.36 13.3425C19.7188 12.7204 19.7188 11.954 19.36 11.3319L18.9269 11.5817ZM17.2972 7.75551C16.9384 7.13337 16.2752 6.75 15.5573 6.75V7.25C16.0963 7.25 16.5945 7.53785 16.8641 8.00532L17.2972 7.75551ZM12.5529 17.4244H11.4417V17.9244H12.5529V17.4244ZM12.7659 17.5434L11.671 15.7643L11.2452 16.0264L12.34 17.8055L12.7659 17.5434ZM14.436 7.25H15.5573V6.75H14.436V7.25ZM17.4614 15.6336L16.8641 16.6691L17.2972 16.9189L17.8945 15.8834L17.4614 15.6336ZM14.2231 7.13102L15.3179 8.9101L15.7438 8.64805L14.6489 6.86898L14.2231 7.13102ZM18.9269 13.0927L18.2981 14.1829L18.7312 14.4327L19.36 13.3425L18.9269 13.0927ZM15.5573 17.4244H13.9785V17.9244H15.5573V17.4244ZM11.4317 7.25H12.9421V6.75H11.4317V7.25Z" fill="#CF55E3"/>
<path d="M12.2448 11.9822L12.1664 12.1177C12.0917 12.247 12.0917 12.4063 12.1664 12.5356L12.6572 13.3844C12.7104 13.46 12.823 13.5933 12.9104 13.5933M12.5345 11.4811L12.6572 11.2689C12.7319 11.1396 12.8701 11.06 13.0196 11.06H13.4445M13.586 13.5933H14.0011C14.1506 13.5933 14.2888 13.5137 14.3635 13.3844L14.8543 12.5356C14.929 12.4063 14.929 12.247 14.8543 12.1177L14.3635 11.2689C14.3156 11.1993 14.1978 11.06 14.1104 11.06" stroke="#05A9DB" stroke-width="0.2" stroke-linecap="round"/>
<path d="M14.6107 10.9487L14.4808 11.0237L14.4808 11.0237L14.6107 10.9487ZM15.2534 12.0629L15.3833 11.988L15.2534 12.0629ZM12.3762 13.7257L12.5062 13.6508L12.5062 13.6508L12.3762 13.7257ZM11.7336 12.6115L11.8635 12.5366L11.8635 12.5366L11.7336 12.6115ZM11.7336 12.0629L11.8635 12.1379L11.8635 12.1379L11.7336 12.0629ZM12.3762 10.9487L12.2463 10.8738L12.2463 10.8738L12.3762 10.9487ZM14.6107 13.7257L14.4808 13.6508L14.4808 13.6508L14.6107 13.7257ZM15.2534 12.6115L15.3833 12.6865L15.3833 12.6865L15.2534 12.6115ZM13.2002 14V14.15C13.2545 14.15 13.3046 14.1206 13.3311 14.0732C13.3576 14.0257 13.3564 13.9677 13.3279 13.9214L13.2002 14ZM12.9868 13.3671C12.9434 13.2966 12.851 13.2746 12.7805 13.318C12.7099 13.3614 12.6879 13.4538 12.7313 13.5244L12.9868 13.3671ZM13.7868 10.6744V10.5244C13.7325 10.5244 13.6824 10.5538 13.6559 10.6013C13.6294 10.6487 13.6306 10.7068 13.6591 10.7531L13.7868 10.6744ZM14.9268 13.4781C14.9681 13.4063 14.9435 13.3146 14.8718 13.2732C14.8 13.2318 14.7083 13.2564 14.6669 13.3282L14.9268 13.4781ZM14.0002 11.3073C14.0436 11.3779 14.136 11.3999 14.2065 11.3564C14.2771 11.313 14.2991 11.2206 14.2556 11.1501L14.0002 11.3073ZM14.9276 12.8762C14.8862 12.948 14.9108 13.0397 14.9825 13.0811C15.0543 13.1225 15.146 13.0979 15.1874 13.0261L14.9276 12.8762ZM13.6443 13.85C13.5614 13.85 13.4943 13.9172 13.4943 14C13.4943 14.0829 13.5614 14.15 13.6443 14.15V13.85ZM13.3214 10.8244C13.4042 10.8244 13.4714 10.7573 13.4714 10.6744C13.4714 10.5916 13.4042 10.5244 13.3214 10.5244V10.8244ZM14.4808 11.0237L15.1235 12.1379L15.3833 11.988L14.7407 10.8738L14.4808 11.0237ZM12.5062 13.6508L11.8635 12.5366L11.6036 12.6865L12.2463 13.8007L12.5062 13.6508ZM11.8635 12.1379L12.5062 11.0237L12.2463 10.8738L11.6036 11.988L11.8635 12.1379ZM12.5062 11.0237C12.5773 10.9003 12.7087 10.8244 12.8508 10.8244V10.5244C12.6014 10.5244 12.3709 10.6577 12.2463 10.8738L12.5062 11.0237ZM11.8635 12.5366C11.7924 12.4132 11.7924 12.2612 11.8635 12.1379L11.6036 11.988C11.479 12.2041 11.479 12.4703 11.6036 12.6865L11.8635 12.5366ZM12.854 13.85C12.7109 13.85 12.5768 13.7733 12.5062 13.6508L12.2463 13.8007C12.3714 14.0176 12.6054 14.15 12.854 14.15V13.85ZM14.4808 13.6508C14.4097 13.7741 14.2783 13.85 14.1361 13.85V14.15C14.3856 14.15 14.616 14.0168 14.7407 13.8007L14.4808 13.6508ZM15.1235 12.1379C15.1946 12.2612 15.1946 12.4132 15.1235 12.5366L15.3833 12.6865C15.508 12.4703 15.508 12.2041 15.3833 11.988L15.1235 12.1379ZM14.7407 10.8738C14.616 10.6577 14.3856 10.5244 14.1361 10.5244V10.8244C14.2783 10.8244 14.4097 10.9003 14.4808 11.0237L14.7407 10.8738ZM13.2002 13.85H12.854V14.15H13.2002V13.85ZM13.3279 13.9214L12.9868 13.3671L12.7313 13.5244L13.0724 14.0786L13.3279 13.9214ZM13.7868 10.8244H14.1361V10.5244H13.7868V10.8244ZM14.6669 13.3282L14.4808 13.6508L14.7407 13.8007L14.9268 13.4781L14.6669 13.3282ZM13.6591 10.7531L14.0002 11.3073L14.2556 11.1501L13.9146 10.5958L13.6591 10.7531ZM15.1235 12.5366L14.9276 12.8762L15.1874 13.0261L15.3833 12.6865L15.1235 12.5366ZM14.1361 13.85H13.6443V14.15H14.1361V13.85ZM12.8508 10.8244H13.3214V10.5244H12.8508V10.8244Z" fill="#CF55E3"/>
</svg>
