<svg width="40" height="40" viewBox="0 0 40 40" fill="none" xmlns="http://www.w3.org/2000/svg">
<circle cx="20" cy="20" r="19.5" fill="#002D37" stroke="url(#paint0_linear_557_71)"/>
<path d="M33.8466 25.4946C33.8466 26.7084 32.8758 27.6924 31.6783 27.6924C30.4808 27.6924 29.51 26.7084 29.51 25.4946C29.51 24.2807 30.4808 23.2968 31.6783 23.2968C32.8758 23.2968 33.8466 24.2807 33.8466 25.4946Z" fill="url(#paint1_linear_557_71)"/>
<path d="M25.731 18.4616C25.731 19.6754 24.7602 20.6594 23.5627 20.6594C22.3652 20.6594 21.3944 19.6754 21.3944 18.4616C21.3944 17.2478 22.3652 16.2638 23.5627 16.2638C24.7602 16.2638 25.731 17.2478 25.731 18.4616Z" fill="url(#paint2_linear_557_71)"/>
<path d="M18.9163 21.7269C18.9163 22.9407 17.9456 23.9247 16.748 23.9247C15.5505 23.9247 14.5797 22.9407 14.5797 21.7269C14.5797 20.5131 15.5505 19.5291 16.748 19.5291C17.9456 19.5291 18.9163 20.5131 18.9163 21.7269Z" fill="url(#paint3_linear_557_71)"/>
<path d="M10.8626 23.2967C10.8626 24.5105 9.89178 25.4945 8.69426 25.4945C7.49674 25.4945 6.52595 24.5105 6.52595 23.2967C6.52595 22.0829 7.49674 21.0989 8.69426 21.0989C9.89178 21.0989 10.8626 22.0829 10.8626 23.2967Z" fill="url(#paint4_linear_557_71)"/>
<path d="M31.2448 20.9733C31.2448 21.8403 30.5514 22.5432 29.696 22.5432C28.8407 22.5432 28.1473 21.8403 28.1473 20.9733C28.1473 20.1063 28.8407 19.4035 29.696 19.4035C30.5514 19.4035 31.2448 20.1063 31.2448 20.9733Z" fill="url(#paint5_linear_557_71)"/>
<path d="M22.9433 23.2967C22.9433 24.1637 22.2499 24.8666 21.3945 24.8666C20.5391 24.8666 19.8457 24.1637 19.8457 23.2967C19.8457 22.4297 20.5391 21.7269 21.3945 21.7269C22.2499 21.7269 22.9433 22.4297 22.9433 23.2967Z" fill="url(#paint6_linear_557_71)"/>
<path d="M20.5891 26.4365C20.5891 27.1301 20.0344 27.6924 19.3501 27.6924C18.6658 27.6924 18.1111 27.1301 18.1111 26.4365C18.1111 25.7429 18.6658 25.1806 19.3501 25.1806C20.0344 25.1806 20.5891 25.7429 20.5891 26.4365Z" fill="url(#paint7_linear_557_71)"/>
<path d="M14.0842 13.4694C14.0842 14.111 13.571 14.6311 12.938 14.6311C12.3051 14.6311 11.7919 14.111 11.7919 13.4694C11.7919 12.8278 12.3051 12.3077 12.938 12.3077C13.571 12.3077 14.0842 12.8278 14.0842 13.4694Z" fill="url(#paint8_linear_557_71)"/>
<path d="M11.7919 19.0895C11.7919 19.9565 11.0985 20.6594 10.2431 20.6594C9.38773 20.6594 8.69431 19.9565 8.69431 19.0895C8.69431 18.2225 9.38773 17.5197 10.2431 17.5197C11.0985 17.5197 11.7919 18.2225 11.7919 19.0895Z" fill="url(#paint9_linear_557_71)"/>
<path d="M16.5003 17.2685C16.5003 18.1355 15.8069 18.8383 14.9515 18.8383C14.0961 18.8383 13.4027 18.1355 13.4027 17.2685C13.4027 16.4015 14.0961 15.6986 14.9515 15.6986C15.8069 15.6986 16.5003 16.4015 16.5003 17.2685Z" fill="url(#paint10_linear_557_71)"/>
<path d="M27.032 13.8776C27.032 14.7446 26.3386 15.4475 25.4832 15.4475C24.6278 15.4475 23.9344 14.7446 23.9344 13.8776C23.9344 13.0106 24.6278 12.3077 25.4832 12.3077C26.3386 12.3077 27.032 13.0106 27.032 13.8776Z" fill="url(#paint11_linear_557_71)"/>
<path d="M29.0146 17.6767C29.0146 18.1102 28.6678 18.4616 28.2402 18.4616C27.8125 18.4616 27.4658 18.1102 27.4658 17.6767C27.4658 17.2432 27.8125 16.8917 28.2402 16.8917C28.6678 16.8917 29.0146 17.2432 29.0146 17.6767Z" fill="url(#paint12_linear_557_71)"/>
<path d="M7.70309 26.9074C7.70309 27.3409 7.35638 27.6923 6.92869 27.6923C6.50101 27.6923 6.1543 27.3409 6.1543 26.9074C6.1543 26.4739 6.50101 26.1225 6.92869 26.1225C7.35638 26.1225 7.70309 26.4739 7.70309 26.9074Z" fill="url(#paint13_linear_557_71)"/>
<path d="M12.4115 15.9184C12.4115 16.3519 12.0648 16.7033 11.6371 16.7033C11.2094 16.7033 10.8627 16.3519 10.8627 15.9184C10.8627 15.4849 11.2094 15.1335 11.6371 15.1335C12.0648 15.1335 12.4115 15.4849 12.4115 15.9184Z" fill="url(#paint14_linear_557_71)"/>
<defs>
<linearGradient id="paint0_linear_557_71" x1="-1.91126" y1="29.1667" x2="42.0819" y2="29.1667" gradientUnits="userSpaceOnUse">
<stop stop-color="#2ED9FF"/>
<stop offset="0.494792" stop-color="#728DE3"/>
<stop offset="1" stop-color="#E69EF0"/>
</linearGradient>
<linearGradient id="paint1_linear_557_71" x1="4.83111" y1="23.5257" x2="35.2879" y2="23.5257" gradientUnits="userSpaceOnUse">
<stop stop-color="#2ED9FF"/>
<stop offset="0.494792" stop-color="#728DE3"/>
<stop offset="1" stop-color="#E69EF0"/>
</linearGradient>
<linearGradient id="paint2_linear_557_71" x1="4.83111" y1="23.5257" x2="35.2879" y2="23.5257" gradientUnits="userSpaceOnUse">
<stop stop-color="#2ED9FF"/>
<stop offset="0.494792" stop-color="#728DE3"/>
<stop offset="1" stop-color="#E69EF0"/>
</linearGradient>
<linearGradient id="paint3_linear_557_71" x1="4.83111" y1="23.5257" x2="35.2879" y2="23.5257" gradientUnits="userSpaceOnUse">
<stop stop-color="#2ED9FF"/>
<stop offset="0.494792" stop-color="#728DE3"/>
<stop offset="1" stop-color="#E69EF0"/>
</linearGradient>
<linearGradient id="paint4_linear_557_71" x1="4.83111" y1="23.5257" x2="35.2879" y2="23.5257" gradientUnits="userSpaceOnUse">
<stop stop-color="#2ED9FF"/>
<stop offset="0.494792" stop-color="#728DE3"/>
<stop offset="1" stop-color="#E69EF0"/>
</linearGradient>
<linearGradient id="paint5_linear_557_71" x1="4.83111" y1="23.5257" x2="35.2879" y2="23.5257" gradientUnits="userSpaceOnUse">
<stop stop-color="#2ED9FF"/>
<stop offset="0.494792" stop-color="#728DE3"/>
<stop offset="1" stop-color="#E69EF0"/>
</linearGradient>
<linearGradient id="paint6_linear_557_71" x1="4.83111" y1="23.5257" x2="35.2879" y2="23.5257" gradientUnits="userSpaceOnUse">
<stop stop-color="#2ED9FF"/>
<stop offset="0.494792" stop-color="#728DE3"/>
<stop offset="1" stop-color="#E69EF0"/>
</linearGradient>
<linearGradient id="paint7_linear_557_71" x1="4.83111" y1="23.5257" x2="35.2879" y2="23.5257" gradientUnits="userSpaceOnUse">
<stop stop-color="#2ED9FF"/>
<stop offset="0.494792" stop-color="#728DE3"/>
<stop offset="1" stop-color="#E69EF0"/>
</linearGradient>
<linearGradient id="paint8_linear_557_71" x1="4.83111" y1="23.5257" x2="35.2879" y2="23.5257" gradientUnits="userSpaceOnUse">
<stop stop-color="#2ED9FF"/>
<stop offset="0.494792" stop-color="#728DE3"/>
<stop offset="1" stop-color="#E69EF0"/>
</linearGradient>
<linearGradient id="paint9_linear_557_71" x1="4.83111" y1="23.5257" x2="35.2879" y2="23.5257" gradientUnits="userSpaceOnUse">
<stop stop-color="#2ED9FF"/>
<stop offset="0.494792" stop-color="#728DE3"/>
<stop offset="1" stop-color="#E69EF0"/>
</linearGradient>
<linearGradient id="paint10_linear_557_71" x1="4.83111" y1="23.5257" x2="35.2879" y2="23.5257" gradientUnits="userSpaceOnUse">
<stop stop-color="#2ED9FF"/>
<stop offset="0.494792" stop-color="#728DE3"/>
<stop offset="1" stop-color="#E69EF0"/>
</linearGradient>
<linearGradient id="paint11_linear_557_71" x1="4.83111" y1="23.5257" x2="35.2879" y2="23.5257" gradientUnits="userSpaceOnUse">
<stop stop-color="#2ED9FF"/>
<stop offset="0.494792" stop-color="#728DE3"/>
<stop offset="1" stop-color="#E69EF0"/>
</linearGradient>
<linearGradient id="paint12_linear_557_71" x1="4.83111" y1="23.5257" x2="35.2879" y2="23.5257" gradientUnits="userSpaceOnUse">
<stop stop-color="#2ED9FF"/>
<stop offset="0.494792" stop-color="#728DE3"/>
<stop offset="1" stop-color="#E69EF0"/>
</linearGradient>
<linearGradient id="paint13_linear_557_71" x1="4.83111" y1="23.5257" x2="35.2879" y2="23.5257" gradientUnits="userSpaceOnUse">
<stop stop-color="#2ED9FF"/>
<stop offset="0.494792" stop-color="#728DE3"/>
<stop offset="1" stop-color="#E69EF0"/>
</linearGradient>
<linearGradient id="paint14_linear_557_71" x1="4.83111" y1="23.5257" x2="35.2879" y2="23.5257" gradientUnits="userSpaceOnUse">
<stop stop-color="#2ED9FF"/>
<stop offset="0.494792" stop-color="#728DE3"/>
<stop offset="1" stop-color="#E69EF0"/>
</linearGradient>
</defs>
</svg>
